<?xml version="1.0" encoding="iso-8859-1"?>
<!-- Generator: Adobe Illustrator 21.0.0, SVG Export Plug-In . SVG Version: 6.00 Build 0)  -->
<svg version="1.1" id="Capa_1" xmlns="http://www.w3.org/2000/svg" xmlns:xlink="http://www.w3.org/1999/xlink" x="0px" y="0px"
	 viewBox="0 0 511.983 511.983" style="enable-background:new 0 0 511.983 511.983;" xml:space="preserve">
<g>
	<g>
		<g>
			<path d="M511.855,255.283c-0.054-0.579-0.168-1.151-0.341-1.707c-0.13-0.51-0.307-1.007-0.529-1.485
				c-0.558-0.948-1.251-1.811-2.057-2.56c-0.162-0.145-0.247-0.333-0.418-0.461L349.85,132.164V81.263l3.797,2.56
				c2.536,1.692,5.783,1.902,8.517,0.552c2.734-1.351,4.539-4.057,4.736-7.1s-1.244-5.959-3.781-7.651l-102.4-68.267
				c-0.936-0.616-1.982-1.045-3.081-1.263c-1.092-0.011-2.185-0.011-3.277,0c-1.105,0.212-2.155,0.645-3.089,1.271l-102.4,68.267
				c-2.536,1.692-3.978,4.609-3.781,7.651c0.197,3.043,2.002,5.749,4.736,7.1c2.734,1.351,5.98,1.14,8.517-0.552l3.797-2.56v50.893
				L3.456,249.071c-0.171,0.128-0.256,0.316-0.418,0.461c-0.441,0.391-0.839,0.829-1.186,1.306
				c-0.325,0.404-0.611,0.839-0.853,1.297c-0.222,0.478-0.399,0.975-0.529,1.485c-0.173,0.555-0.288,1.127-0.341,1.707
				c0,0.213-0.128,0.393-0.128,0.614v247.424c0,4.713,3.82,8.533,8.533,8.533H503.45c4.713,0,8.533-3.82,8.533-8.533V255.898
				C511.983,255.676,511.872,255.497,511.855,255.283z M179.183,69.871l76.8-51.2l76.8,51.2v257.143l-74.624-19.627
				c-0.171-0.043-0.341,0-0.512,0c-0.564-0.087-1.136-0.115-1.707-0.085c-0.55-0.023-1.102,0.005-1.647,0.085
				c-0.171,0-0.341,0-0.521,0l-74.59,19.627V69.871z M17.05,260.207l145.067-106.889v21.513L17.05,281.677V260.207z
				 M102.392,494.831H17.05V302.874l145.067-106.889v135.518l-70.443,18.543c-4.148,1.093-6.84,5.095-6.288,9.349
				c0.552,4.254,4.175,7.437,8.464,7.436c0.737,0.003,1.472-0.092,2.185-0.282l6.357-1.707V494.831z M136.516,494.831H119.45
				V360.388l17.067-4.488V494.831z M247.45,494.831h-42.667V375.364h42.667V494.831z M307.183,494.831h-42.667V375.364h42.667
				V494.831z M358.383,494.831H324.25v-128c0-4.713-3.82-8.533-8.533-8.533H196.25c-4.713,0-8.533,3.82-8.533,8.533v128h-34.133
				V351.403l102.4-26.948l102.4,26.948V494.831z M392.516,494.831H375.45v-138.94l17.067,4.497V494.831z M494.916,494.831h-85.333
				V364.877l6.349,1.707c0.715,0.173,1.449,0.256,2.185,0.247c4.289,0.001,7.913-3.182,8.464-7.436s-2.141-8.256-6.288-9.349
				l-16.905-4.446c-0.068,0-0.119-0.068-0.179-0.085l-34.133-8.951l-19.226-5.052V195.985l145.067,106.889V494.831z
				 M494.916,281.677L349.85,174.831v-21.513l145.067,106.889V281.677z"/>
			<path d="M230.383,93.764h17.067v59.733c0,4.713,3.82,8.533,8.533,8.533s8.533-3.821,8.533-8.533V93.764h17.067
				c4.713,0,8.533-3.821,8.533-8.533s-3.82-8.533-8.533-8.533h-17.067V59.631c0-4.713-3.82-8.533-8.533-8.533
				s-8.533,3.82-8.533,8.533v17.067h-17.067c-4.713,0-8.533,3.82-8.533,8.533S225.67,93.764,230.383,93.764z"/>
			<path d="M307.183,230.298c0-28.277-22.923-51.2-51.2-51.2s-51.2,22.923-51.2,51.2c0.028,28.265,22.935,51.172,51.2,51.2
				C284.26,281.498,307.183,258.575,307.183,230.298z M221.85,230.298c0-18.851,15.282-34.133,34.133-34.133
				c18.851,0,34.133,15.282,34.133,34.133s-15.282,34.133-34.133,34.133C237.132,264.431,221.85,249.149,221.85,230.298z"/>
		</g>
	</g>
</g>
<g>
</g>
<g>
</g>
<g>
</g>
<g>
</g>
<g>
</g>
<g>
</g>
<g>
</g>
<g>
</g>
<g>
</g>
<g>
</g>
<g>
</g>
<g>
</g>
<g>
</g>
<g>
</g>
<g>
</g>
</svg>
