<?xml version="1.0" encoding="iso-8859-1"?>
<!-- Generator: Adobe Illustrator 19.0.0, SVG Export Plug-In . SVG Version: 6.00 Build 0)  -->
<svg version="1.1" id="Layer_1" xmlns="http://www.w3.org/2000/svg" xmlns:xlink="http://www.w3.org/1999/xlink" x="0px" y="0px"
	 viewBox="0 0 480 480" style="enable-background:new 0 0 480 480;" xml:space="preserve">
<g id="XMLID_1780_">
	<g>
		<g>
			<path d="M390,50h-81.265c-4.063-15.727-17.476-27.734-33.929-29.713C267.794,7.925,254.549,0,240,0s-27.794,7.925-34.805,20.287
				C188.742,22.266,175.329,34.273,171.266,50H90c-16.542,0-30,13.458-30,30v370c0,16.542,13.458,30,30,30h300
				c16.542,0,30-13.458,30-30V80C420,63.458,406.542,50,390,50z M210,40h1.714c4.239,0,8.016-2.671,9.428-6.667
				C223.962,25.358,231.54,20,240,20s16.038,5.358,18.858,13.333c1.412,3.996,5.19,6.667,9.428,6.667H270c11.028,0,20,8.972,20,20
				s-8.972,20-20,20h-60c-11.028,0-20-8.972-20-20S198.972,40,210,40z M130,70h41.266c4.451,17.233,20.13,30,38.734,30h60
				c18.604,0,34.283-12.767,38.734-30H350v340H130V70z M400,450c0,5.514-4.486,10-10,10H90c-5.514,0-10-4.486-10-10V80
				c0-5.514,4.486-10,10-10h20v340c0,11.028,8.972,20,20,20h220c11.028,0,20-8.972,20-20V70h20c5.514,0,10,4.486,10,10V450z"/>
			<path d="M200,160h80c5.522,0,10-4.478,10-10c0-5.522-4.478-10-10-10h-80c-5.522,0-10,4.478-10,10
				C190,155.522,194.478,160,200,160z"/>
			<path d="M280,240h-80c-5.522,0-10,4.478-10,10c0,5.522,4.478,10,10,10h80c5.522,0,10-4.478,10-10
				C290,244.478,285.522,240,280,240z"/>
			<path d="M258,300c-6.518,0-12.81,2.095-18,5.791c-5.19-3.696-11.482-5.791-18-5.791c-17.094,0-31,13.906-31,31
				c0,8.696,3.832,16.877,10.513,22.445l26.78,22.316C231.573,378.494,235.73,380,240,380s8.427-1.506,11.706-4.239l26.781-22.317
				C285.168,347.877,289,339.696,289,331C289,313.906,275.094,300,258,300z M265.685,338.079L240,359.482l-25.685-21.403
				C212.209,336.323,211,333.743,211,331c0-6.065,4.935-11,11-11c3.893,0,7.42,1.997,9.435,5.341c1.809,3.004,5.06,4.84,8.565,4.84
				s6.755-1.836,8.565-4.84C250.58,321.997,254.107,320,258,320c6.065,0,11,4.935,11,11
				C269,333.743,267.791,336.323,265.685,338.079z"/>
			<path d="M310,190H170c-5.522,0-10,4.478-10,10c0,5.522,4.478,10,10,10h140c5.522,0,10-4.478,10-10
				C320,194.478,315.522,190,310,190z"/>
		</g>
	</g>
</g>
<g>
</g>
<g>
</g>
<g>
</g>
<g>
</g>
<g>
</g>
<g>
</g>
<g>
</g>
<g>
</g>
<g>
</g>
<g>
</g>
<g>
</g>
<g>
</g>
<g>
</g>
<g>
</g>
<g>
</g>
</svg>
